  <svg
          class="section-sand__michele-svg"
          xmlns="http://www.w3.org/2000/svg"
          version="1.1"
          id="svg262"
          viewBox="0 0 178.86312 60.319413"
        >
          <defs id="defs266" />
          <path
            style="
              fill: none;
              stroke: #000000;
              stroke-width: 1.2;
              stroke-linecap: round;
              stroke-linejoin: round;
            "
            d="m 18.650129,24.495576 c -3.75765,-2.74853 -9.3094783,-3.6191 -13.7674184,-1.188 -3.38412,2.8197 -6.25784,6.74361 -2.53846,12.56452 3.14547,4.92273 8.9935894,6.77483 15.2169184,5.3927 6.22332,-1.38213 11.0123,-6.85741 14.49104,-12.08062 3.47874,-5.2232 5.07307,-10.51011 6.52932,-16.58175 0.95636,-2.56701 -0.23132,-12.8759123 0.95712,-5.3220628 1.18844,7.5538528 1.69948,13.5011328 2.84146,18.4496628 1.14198,4.94853 1.95311,13.2101 3.74783,12.7892 2.02371,-5.23147 3.86231,-9.2906 6.47008,-15.13748 2.82714,-6.33874 7.53118,-14.4087529 10.10012,-18.0521531 2.56894,-3.64339 4.748811,-7.624126 2.30975,-1.71249 -2.43906,5.91164 -2.85988,13.1738231 -3.15431,18.7706831 -0.29443,5.59686 0.05403,15.98272 1.992027,18.38905 1.938,2.40632 7.861025,-5.06231 6.923238,-10.41925 0.654302,4.34209 1.477349,15.80163 6.858331,9.3344 9.54838,-19.58302 14.091194,-6.38156 11.569664,-10.35667 -5.05234,-3.82776 -9.64758,9.10714 -3.196929,11.44971 6.10549,2.17958 10.211179,-3.91012 12.129649,-7.97693 1.918451,-4.06681 0.59682,-1.80406 2.986051,-6.23561 2.38925,-4.43156 4.52564,-15.65363 3.72551,-21.545443 -1.22523,-4.24303935 -5.117924,-2.4246299 -5.715691,5.891043 -0.597759,8.31566 -1.3347,18.95163 -0.97863,25.97136 0.487121,2.36207 0.211781,5.73672 3.201491,0.11755 1.8386,-3.15459 6.45344,-11.6397 7.74394,-4.12552 1.14524,6.66838 0.30072,8.99337 3.28501,7.32979 2.9843,-1.66359 5.7126,-1.16874 10.52978,-4.28619 4.81718,-3.11745 1.26611,-11.96903 -2.83427,-4.19985 -4.10038,7.76918 6.15245,11.31437 10.53992,6.28814 4.38747,-5.02623 5.92476,-11.94216 7.89487,-17.66581 1.97011,-5.72365 2.96963,-17.0086227 0.42166,-17.6433228 -2.54796,-0.63471 -4.42189,11.0299128 -4.53633,17.1204728 -0.11444,6.09056 -1.68983,13.89614 1.81411,18.65145 4.07661,5.5325 7.46873,-0.51418 9.96224,-2.73003 1.2537,-1.1141 1.72859,1.98275 2.64097,1.93677 2.79426,-0.14083 7.28281,-8.76031 1.86438,-8.50318 -5.41843,0.25713 -2.16931,13.92868 3.65851,11.2633 5.82782,-2.66539 5.22857,-4.68257 7.09322,-6.79876"
            id="path2118"
            class="michele-path"
          />
          <path
            id="path2124"
            style="
              fill: none;
              stroke: #000000;
              stroke-width: 1.202;
              stroke-linecap: round;
              stroke-linejoin: round;
            "
            d="m 72.343618,22.584579 c 0.457266,-6.40243 -5.153812,-0.30017 -1.102254,0.94199 0.76417,-1.07347 1.087784,-0.88151 0.892654,-2.1996"
            class="michele-circle"
          />
        </svg>