 <svg
          class="section-sand__gabriella-svg"
          xmlns="http://www.w3.org/2000/svg"
          version="1.1"
          id="svg6975"
          viewBox="0 0 178.86563 60.321938"
        >
          <defs id="defs6979" />
          <path
            style="
              opacity: 0.8;
              fill: none;
              stroke: #000000;
              stroke-width: 1.377;
              stroke-linecap: round;
              stroke-linejoin: round;
              stroke-miterlimit: 1078.7;
              stroke-opacity: 1;
            "
            d="m 586.57195,215.957 c -1.41206,-7.79013 -9.00704,-13.2967 -17.69154,-11.79422 -8.6845,1.50248 -14.20229,4.92703 -20.33515,11.57961 -5.58575,6.0591 -8.15526,21.95837 1.14676,25.69653 7.47261,3.00298 11.50648,0.20904 17.60372,-2.39331 6.09724,-2.60235 10.22743,-9.8538 13.02345,-13.41233 2.79602,-3.55853 1.65798,-11.10758 0.89661,-3.8175 -0.88951,8.51691 1.10654,21.2931 0.58634,26.56255 -0.52021,5.26945 -0.77514,6.16539 -1.7866,8.93856 -1.01146,2.77318 -3.36525,5.52815 -7.69884,5.54179 -3.61118,0.0114 -5.09954,-3.71116 -4.18734,-7.97239 0.8362,-3.90616 4.24147,-7.60466 6.59573,-10.33358 4.09062,-4.7416 14.70618,-4.00761 16.60038,-8.89231 1.59108,-4.103 0.27945,-0.77441 0.38595,-1.05625 1.13,-2.99015 3.33356,-3.84532 5.48763,-3.66018 1.11986,0.0963 2.111,0.47223 2.64148,0.96232 0.7327,0.67691 -2.94164,-1.96583 -5.28077,-0.53286 -0.55354,0.33911 -1.99676,0.99978 -2.32465,1.89337 -1.7257,4.70291 -2.7449,5.36254 -1.01523,7.4512 2.16871,2.61882 4.39877,0.62462 5.93164,-1.30958 0.85745,-1.08195 2.03616,-2.77142 1.68569,-3.08378 -0.78964,-0.70376 0.63059,10.96887 7.7462,3.72721 5.14489,-5.23603 7.50495,-13.24777 9.65099,-20.42003 1.22253,-4.08581 2.41298,-15.29987 -2.10402,-15.4188 -1.11286,-0.0293 -2.90594,2.16555 -3.47867,5.75238 -0.57273,3.58684 -0.70167,7.80015 -0.68494,12.00986 0.0167,4.20971 -0.86616,12.60897 1.11282,16.8059 5.07562,10.76414 13.74485,-1.28851 7.96644,-6.51628 -4.28832,-3.87967 -3.4566,6.26476 -3.23454,2.13263 0.40857,-7.60278 5.42673,-0.62677 6.57331,4.46902 0.32609,1.44926 3.58992,1.8869 5.12161,0.71269 4.35374,-3.33763 4.77985,-8.60914 4.58043,-11.61737 -0.22972,-3.46521 -4.81902,3.94904 -0.74074,2.36882 0.90116,-0.34917 2.28305,-0.10472 4.25748,0.72902 0.90024,0.38014 1.257,1.00181 1.1898,1.59094 -1.5158,13.28764 7.08636,11.84572 11.1315,1.74493 2.43659,-6.08424 0.805,-5.47406 0.47272,0.14196 -0.71084,12.01397 5.67413,7.42432 12.39217,4.29064 5.34604,-2.4937 8.80947,-8.596 1.73931,-6.80184 -5.22102,1.32491 -0.77602,14.52977 6.7269,8.94583 5.98283,-4.45264 8.34447,-11.37895 10.94753,-18.83207 1.47665,-4.22796 2.99945,-19.27545 -0.98068,-17.89674 -3.77148,1.30643 -5.33335,13.77435 -5.15801,20.33971 0.0174,0.65199 0.052,1.24577 0.10317,1.76462 0.56693,5.74358 1.58817,15.79817 6.36925,16.29979 4.78107,0.50162 7.2406,-7.82665 10.39252,-13.21327 3.15192,-5.38662 6.68668,-25.40784 2.49617,-25.10309 -4.19052,0.30475 -4.87745,6.82846 -4.84016,12.79476 0.0373,5.96631 -2.37213,16.70966 1.60347,22.32033 3.50365,4.94461 8.64589,1.61013 9.87879,-1.53684 0.87899,-2.24359 1.55965,-3.31755 2.95882,-4.8037 4.34496,-4.61506 12.62624,-0.8191 5.25666,-2.26408 -9.02005,-1.76859 -8.75148,17.83704 -0.0931,8.86664 0.60944,-0.6314 2.36684,-4.25055 2.08978,-3.82842 -2.01158,3.06489 2.58794,9.2482 6.95706,4.46863 4.36911,-4.77957 3.19427,-4.3689 3.77185,-5.27252"
            id="path6992"
            class="gabriella-path"
            transform="translate(-542.83323,-203.22653)"
          />
          <path
            style="
              opacity: 0.8;
              fill: none;
              stroke: #000000;
              stroke-width: 0.99800101;
              stroke-linecap: round;
              stroke-linejoin: round;
              stroke-opacity: 1;
            "
            d="m 649.62498,222.96664 c 0.35845,-0.0204 0.60869,-0.32458 0.77168,-0.61455 0.16494,-0.20377 0.34581,-0.42696 0.34942,-0.70263 0.0529,-0.27414 0.0976,-0.59474 -0.096,-0.82727 -0.15433,-0.1803 -0.34727,-0.32454 -0.51963,-0.48692 -0.28268,-0.23482 -0.64529,-0.35284 -1.01105,-0.3497 -0.37181,-0.0118 -0.75114,0.13414 -0.98634,0.42914 -0.23263,0.24011 -0.41599,0.5345 -0.46997,0.86885 -0.0225,0.22106 -0.0992,0.45145 -0.0301,0.66934 0.10122,0.25715 0.39492,0.33283 0.58119,0.51376 0.25001,0.19844 0.51685,0.38257 0.82104,0.48654 0.18634,0.0912 0.35431,0.0408 0.58083,0.019"
            id="path8144"
            class="gabriella-circle"
            transform="translate(-542.83323,-203.22653)"
          />
        </svg>