<svg xmlns="http://www.w3.org/2000/svg" height="20" width="20"><path d="M7.5 11.5q-.417 0-.708-.292-.292-.291-.292-.708t.292-.708Q7.083 9.5 7.5 9.5t.708.292q.292.291.292.708t-.292.708q-.291.292-.708.292Zm5 0q-.417 0-.708-.292-.292-.291-.292-.708t.292-.708q.291-.292.708-.292t.708.292q.292.291.292.708t-.292.708q-.291.292-.708.292Zm-2.5 5q2.729 0 4.615-1.896Q16.5 12.708 16.5 10q0-.479-.104-1.094-.104-.614-.271-1.073-.437.105-.792.136Q14.979 8 14.5 8q-1.792 0-3.385-.698-1.594-.698-2.844-2.01Q7.5 6.917 6.323 7.979 5.146 9.042 3.542 9.583q-.021.084-.032.209-.01.125-.01.208 0 2.708 1.896 4.604T10 16.5Zm0 1.5q-1.646 0-3.104-.625-1.458-.625-2.552-1.719t-1.719-2.552Q2 11.646 2 10q0-1.667.625-3.125t1.719-2.542Q5.438 3.25 6.896 2.625T10 2q1.667 0 3.125.625t2.542 1.708q1.083 1.084 1.708 2.542Q18 8.333 18 10q0 1.646-.625 3.104-.625 1.458-1.708 2.552-1.084 1.094-2.542 1.719Q11.667 18 10 18ZM8.854 3.604q.958 1.313 2.438 2.104 1.479.792 3.208.792.25 0 .438-.01.187-.011.479-.052Q14.396 5 13.021 4.25 11.646 3.5 10 3.5q-.25 0-.542.031-.291.031-.604.073ZM3.896 7.812q1.187-.604 1.979-1.489.792-.885 1.25-2.115-1.313.771-2.083 1.625-.771.855-1.146 1.979Zm4.958-4.208Zm-1.729.604Z"/></svg>